<?xml version="1.0" encoding="utf-8"?>
<!-- Generator: Adobe Illustrator 25.0.0, SVG Export Plug-In . SVG Version: 6.00 Build 0)  -->
<!DOCTYPE svg PUBLIC "-//W3C//DTD SVG 1.1//EN" "http://www.w3.org/Graphics/SVG/1.1/DTD/svg11.dtd" [
	<!ENTITY ns_extend "http://ns.adobe.com/Extensibility/1.0/">
	<!ENTITY ns_ai "http://ns.adobe.com/AdobeIllustrator/10.0/">
	<!ENTITY ns_graphs "http://ns.adobe.com/Graphs/1.0/">
	<!ENTITY ns_vars "http://ns.adobe.com/Variables/1.0/">
	<!ENTITY ns_imrep "http://ns.adobe.com/ImageReplacement/1.0/">
	<!ENTITY ns_sfw "http://ns.adobe.com/SaveForWeb/1.0/">
	<!ENTITY ns_custom "http://ns.adobe.com/GenericCustomNamespace/1.0/">
	<!ENTITY ns_adobe_xpath "http://ns.adobe.com/XPath/1.0/">
]>
<svg version="1.1" id="Layer_1" xmlns:x="&ns_extend;" xmlns:i="&ns_ai;" xmlns:graph="&ns_graphs;"
	 xmlns="http://www.w3.org/2000/svg" xmlns:xlink="http://www.w3.org/1999/xlink" x="0px" y="0px" viewBox="0 0 170.1 56.7"
	 style="enable-background:new 0 0 170.1 56.7;" xml:space="preserve">
<style type="text/css">
	.st0{fill:#002E65;}
	.st1{fill:#EA2C38;}
	.st2{fill:#FFFFFF;}
</style>
<metadata><?xpacket begin="﻿" id="W5M0MpCehiHzreSzNTczkc9d"?>
<x:xmpmeta xmlns:x="adobe:ns:meta/" x:xmptk="Adobe XMP Core 6.0-c002 79.164519, 2020/08/25-17:54:00        ">
   <rdf:RDF xmlns:rdf="http://www.w3.org/1999/02/22-rdf-syntax-ns#">
      <rdf:Description rdf:about=""
            xmlns:dc="http://purl.org/dc/elements/1.1/"
            xmlns:xmp="http://ns.adobe.com/xap/1.0/"
            xmlns:xmpGImg="http://ns.adobe.com/xap/1.0/g/img/"
            xmlns:xmpMM="http://ns.adobe.com/xap/1.0/mm/"
            xmlns:stRef="http://ns.adobe.com/xap/1.0/sType/ResourceRef#"
            xmlns:stEvt="http://ns.adobe.com/xap/1.0/sType/ResourceEvent#"
            xmlns:illustrator="http://ns.adobe.com/illustrator/1.0/"
            xmlns:xmpTPg="http://ns.adobe.com/xap/1.0/t/pg/"
            xmlns:stDim="http://ns.adobe.com/xap/1.0/sType/Dimensions#"
            xmlns:xmpG="http://ns.adobe.com/xap/1.0/g/"
            xmlns:pdf="http://ns.adobe.com/pdf/1.3/">
         <dc:format>image/svg+xml</dc:format>
         <dc:title>
            <rdf:Alt>
               <rdf:li xml:lang="x-default">Print</rdf:li>
            </rdf:Alt>
         </dc:title>
         <xmp:MetadataDate>2020-11-11T15:42:49+01:00</xmp:MetadataDate>
         <xmp:ModifyDate>2020-11-11T15:42:49+01:00</xmp:ModifyDate>
         <xmp:CreateDate>2020-11-11T15:42:48+01:00</xmp:CreateDate>
         <xmp:CreatorTool>Adobe Illustrator 25.0 (Macintosh)</xmp:CreatorTool>
         <xmp:Thumbnails>
            <rdf:Alt>
               <rdf:li rdf:parseType="Resource">
                  <xmpGImg:width>256</xmpGImg:width>
                  <xmpGImg:height>76</xmpGImg:height>
                  <xmpGImg:format>JPEG</xmpGImg:format>
                  <xmpGImg:image>/9j/4AAQSkZJRgABAgEASABIAAD/7QAsUGhvdG9zaG9wIDMuMAA4QklNA+0AAAAAABAASAAAAAEA&#xA;AQBIAAAAAQAB/+4ADkFkb2JlAGTAAAAAAf/bAIQABgQEBAUEBgUFBgkGBQYJCwgGBggLDAoKCwoK&#xA;DBAMDAwMDAwQDA4PEA8ODBMTFBQTExwbGxscHx8fHx8fHx8fHwEHBwcNDA0YEBAYGhURFRofHx8f&#xA;Hx8fHx8fHx8fHx8fHx8fHx8fHx8fHx8fHx8fHx8fHx8fHx8fHx8fHx8fHx8f/8AAEQgATAEAAwER&#xA;AAIRAQMRAf/EAaIAAAAHAQEBAQEAAAAAAAAAAAQFAwIGAQAHCAkKCwEAAgIDAQEBAQEAAAAAAAAA&#xA;AQACAwQFBgcICQoLEAACAQMDAgQCBgcDBAIGAnMBAgMRBAAFIRIxQVEGE2EicYEUMpGhBxWxQiPB&#xA;UtHhMxZi8CRygvElQzRTkqKyY3PCNUQnk6OzNhdUZHTD0uIIJoMJChgZhJRFRqS0VtNVKBry4/PE&#xA;1OT0ZXWFlaW1xdXl9WZ2hpamtsbW5vY3R1dnd4eXp7fH1+f3OEhYaHiImKi4yNjo+Ck5SVlpeYmZ&#xA;qbnJ2en5KjpKWmp6ipqqusra6voRAAICAQIDBQUEBQYECAMDbQEAAhEDBCESMUEFURNhIgZxgZEy&#xA;obHwFMHR4SNCFVJicvEzJDRDghaSUyWiY7LCB3PSNeJEgxdUkwgJChgZJjZFGidkdFU38qOzwygp&#xA;0+PzhJSktMTU5PRldYWVpbXF1eX1RlZmdoaWprbG1ub2R1dnd4eXp7fH1+f3OEhYaHiImKi4yNjo&#xA;+DlJWWl5iZmpucnZ6fkqOkpaanqKmqq6ytrq+v/aAAwDAQACEQMRAD8ALL29u767lu7uVprmZi8s&#xA;rmpJOaMkk2X1PHjjCIjEUAoYGbsVdirsVdirsVdirsVe7fkPqF5ceXr62nlaSG1nUW6sSeCulSq1&#xA;6CorTNlo5ExLxftHijHLEgbyG703Mt512KuxV2KuxV2KuxVB2etaPfXVzaWV/b3V1ZNwvLeGVJJI&#xA;WNdpUUlkO37WSMSOYQCCjMil2KuxV2KuxV2KuxVC6nq+laVbfWtUvYLC15BPXuZUhj5N9leTlRU9&#xA;hhjEnkgkDmiUdJEWSNg6OAyOpqCDuCCMCW8VdirsVdirsVfHmaJ9WVYLa4uHKW8TzOBUrGpY06Vo&#xA;MIBLGUxHcmlc6RqwFTZTgDqfSf8Aph4D3MPHx/zh80HkW12KuxVGDSNWIqLKcg9D6T/0yXAe5q8f&#xA;H/OHzQeRbXYq9u/ID/jj6r/zER/8QzYaLkXj/aX+8h7nquZrzLEfzcvr2w/LbzBeWNxJa3cNqzQ3&#xA;EDtHIjchurqQwPyy7TgGYBa8pqJYT/zjBr2uaz5R1WfWNRutSnjvykct3NJO6p6MZ4q0hYgVNaZd&#xA;rYiMhQrZr08iRul//OUvmPzDoth5ebRtUu9MaeW5EzWc8kBcKsfEN6bLWlTSuS0MBImxaNTIiqem&#xA;ab5o0vR/IOi6x5gvxbwPY2fr3lwzMWlkhU1ZviYsxzGlAmZAHVuEgIglB6h+c/5YafY2t7da/AsF&#xA;6hktgiSySMgYryMUaNIo5Kd2UZIafITVIOWI6si8veZdB8xaaupaJexX9k5K+rEejDqrKaMrezAH&#xA;KpwMTRZxkCLDyz8sfLn5YeW/NvmXWtG8ynUblYJ2vLVt/qlsJRJMXIFX4ug+LwzLzTySiARTRjjE&#xA;EkF6V5b87eU/MzXC6DqcOoNahDcCEklBJXjWoHXicxZ45R5im6MweSzVfPnlDSdYh0XUNVht9VuP&#xA;T9CyYkyOZW4xgAA7s2wwxxSIsDZTMA015q8++T/Kkcb+YNUhsDKCYom5PK4HUrFGHkI9wuMMUp8g&#xA;spiPNS8qfmR5H82O8fl/Vor2aMcngo8UoUGhb0pljfj70phyYZQ5hEckZciu1L8w/JWm64NCv9Wh&#xA;t9VI5G1flVV4erydqcVXh8VWNKYBhkRYGynJEGrWeWfzI8keZ5ryHQ9VjvHsBzu6JJGqIDTnykVF&#xA;Zf8AKUkYZ4ZR5hY5Inkk8/57/lLDemzfzHAZgackjnkir/xmSNou3XlkxpclXTHxod6VfnPpn5f+&#xA;avKukya55iTSbGWYXOmaglJI5g0e4A6MCjVBrtktNKcJGhaMojICynOpedPJn5e/l5pV21211pkd&#xA;pBDo6qwee7QRL6ZSvHqlGZtgB9AyAxyyTPf1SZiEUr8gfnn5U17QtPl1nUbSw169lkjOlxlyVJuH&#xA;jgQV5Es0fD5k9B0yeXSyiTQ2RDMCN+bL/Lvn3yd5kuJbbQtWg1CeBPUljhJLKhNORqBtU5TPFKPM&#xA;NkZg8i3rvnvyhoOoQadrGqQ2V9cqrwW8hPN1ZiikAA9WBGMcUpCwFlMDmnuVsnYq+PM0T6s9K/IX&#xA;/lMLz/tnyf8AJ+HMvR/Wfc8/7Sf4vH+uPuk9zvf94rj/AIxv/wARObE8njMf1D3vkLNG+puxV2Kv&#xA;r2y/3it/+Maf8RGbwcnyzJ9R975CzRvqbsVe3fkB/wAcfVf+YiP/AIhmw0XIvH+0v95D3PVczXmW&#xA;FfnT/wCSr8y/8wbf8SXL9N/eBrzfSWA/84k/8oXrH/bSP/JiPL9f9Q9zVpeRS3/nL1l/R/lhajkZ&#xA;bsgd6BYq/ryfZ/MsdV0TL85v/Wd9H/4w6X/yaXIaf++PxZZf7sfBL/yt/J7yB5h/J211bUtN56ve&#xA;Q3he/WWUSK0U8scbIofgOKxrtxoe+Sz6icclA7Ix4omFlAf84hXM/wBZ8zW3M+hwtJPT7B6yryH0&#xA;ZLtAcmOl6qP/ADjlGkn5p+b45FDxvBcq6kVBBu1BBGHWf3cVwfUUF+XSP+W//OQN15bmYpp2oM9l&#xA;CzHYxT0ms292qFT5k4c37zDxdQjH6MlJh+Wlt/ysL8+tZ83yj1dK0eRpbVjupK1gsh7fAhl+a4Mx&#xA;8PEI9T+CnH65ksK0nzNDrn5p6t5k8w+X7vzVErymDTLeMzJGA/CESJRgY44xQKdidzl0ocOMRB4W&#xA;sSuRJFpisWoSfm5ofmHyn5Q1Ly5Zi5thdWzW0qxKWl4TkcFVUjeFqMuw65HbwyJSBT/GCBSL/NjR&#xA;rXXP+cjYtHu3kjtdQlsLad4SFkCSworcSQwrQ+GDBLhw33WnKLyU9P8AMn5I6XofkHzVaeR4p01T&#xA;V7WCMwvMX5JbSiSRIyd+UyclIJodhtmLDUmU48fIN0sIETwvFvy58xflhpMEvlz8wfKhNx6xEuql&#xA;ZPXjrtwljqkkYT/ivf8Aya75m5oZD6oScfHKI2kGe/8AOTUekxfl/wCT4tHZW0mNgmnsjF1Nutuo&#xA;ioxqSOAG5zH0V8cr5tuorhFKv5taXp8//OO3lPUZoFe9srHTEtZz9qNZ7eL1Qv8AremtfljgkfGk&#xA;PMrlH7sMg/Ib8uvJtz+X3l3zBe6PBJrivLcLfMD6geK8kML1BpVVVaZXqs0hMgHZnhxjhBrd55aw&#xA;D8sP+cjEhA9HRtTm4xgUC/VNQNFH+pDPt/sMyCfFw+Y/Q1D0ZE20OBvzE/5yRvdTYero/luSsZO6&#xA;Usj6UIU/5dxWUe1chI+HhrqUj15L7n0nmtcx2KvjzNE+rPSvyF/5TC8/7Z8n/J+HMvR/Wfc8/wC0&#xA;n+Lx/rj7pPc73/eK4/4xv/xE5sTyeMx/UPe+Qs0b6mzHyj+V3mTzJCt3GEs9Pb7F1PUc6dfTQfE3&#xA;z2HvmRi08p79HU63tjDpzwn1S7h+lk8//OP+qLGTBq8EknZXidF/4IF/1ZadEe910faaF7wNe97P&#xA;bxtHbxRtQsiKpI6VApmwDyUjZJfIJBBodiM0T6orW1nd3IlNvC8ogQyzFASEjXqzEdBhAJYTyRjV&#xA;mr2ez/kB/wAcfVf+YiP/AIhmfouReS9pf7yHueq5mvMpZ5n0G18weXtR0S6YpBqNvJbvIoqU5rQO&#xA;B4qdxkoS4SD3IlGxT5l0DRvzy/KTWbyHSNFk1jTrpgHEEEl3bTBK8JQID6sTUP7VPcHbNnOWLMNz&#xA;RcKInjOwRN55K/OP83fM1nd+adPbQtItfg/extbrDExBk9KGUtK8j06nbpUgYBkx4Y+k2UmE8h32&#xA;ep/nx5Y1C+/KwaLoFhLdyQTWqQWlupkcRQ/CKAb0VRmLpZgZLJb80bjQR35OaNq2l/k9pumajaS2&#xA;moxRXoktJlKSKZLmZkBU7/ErAjI6iQOQkck4gRCmB/8AOMHlDzT5fv8AzA+t6Vc6ctxFbCBrmJow&#xA;5VpCwXkN6VGZGtyRkBRtq08SLt35C+UPNOj/AJk+Zr/VdKubKyuYpxb3E8TIjlrpXAViN6qK46rJ&#xA;EwABXDEiRtE/85J/lzrusXGjeZfLdnNd6pan6rcpaqWlCAmWCQBd/gbkK+4waPMBcZck6jGTRDL/&#xA;AMg/I1x5S8gwR38Bt9X1KRru+jcUdK/DFG3f4Y1BI7EnKdVl457cgzwQ4YvLta8i/mX+WX5iXXmb&#xA;yXpz6xpF+0h+rwRtP+6mfm1vLFH+8HBqcHXwHuMyo5YZYcMjRaTCUJXFm3lf8xPzr8w69p9vJ5N/&#xA;QujmdDqd1dpLG6wA/vPT9YxbntRG/jlE8OKIPqstkckyeVMb84eTfNd1/wA5G6frlvpN1Lo8d1p7&#xA;yX6RMYQsaIHJcCnw03y3HkiMJF77sJwPiXT2H8xNS836b5WnvPKViuo6zHJEY7ZxyBj5gyfDyjLf&#xA;DtRTXMPDGJlUjQcjISBtzfP3nyb81PzOjsdMm/L19O1C3l5NqskEsJKgFeAmnEarHvUjk1SBTNhi&#xA;8PFvxWHFnxT24WQ/nH+W/meP8svJ3l3SrOfV7vSSUuzaRtIAfS+I0Arx5Eha5Xp80eOUjtbLLjPC&#xA;AGVecvI3mDXvyB0nQbO3I1qz0/TXNjJ8DmS2hQSRHlTi4+LY9xTKceURzEnlZbJwJx11YT+VHmb8&#xA;8tFttK8op5Sk/RdtciOS+vrW4iMdvLMWlpIzxRtx5MVO/wBOX54YpXLi3asUpjak6/5yu8uQS+Xd&#xA;K8yxusV7p1z9VJJCs8c4LgL4sjx1A8CxyGhnuY97PUx2tOv+cZvKTaR5DbWblT9f8wSm5Z2+16Ed&#xA;UhBPevxv/sshrclzruZaeNRvveu5ht7sVfHmaJ9WelfkL/ymF5/2z5P+T8OZej+s+55/2k/xeP8A&#xA;XH3Se53v+8Vx/wAY3/4ic2J5PGY/qHvfKWgppL6vajV5DFpofldMoZmKKORQBamr04/TmmhV78n0&#xA;zUnIMZ8MXPp+PJ7PH+enkyDhBDY3qW0ahE4RwqqhdlCr6v2aZn/m4dxeRPs7qDuZRv3n9TI9D/M3&#xA;yZrLrFb36wXDdLe5BhavgC3wMfZWOWwzwlyLgajsnUYtzGx3jdlOXOtQN7oGhX7877TrW6f+aeGO&#xA;Q/eynImAPMN2PU5IfTKUfcSGFfmlqOheW/J9zplhbwWl1qo9GK3t40j+Cv7x2VANgtR8zmPqJCEK&#xA;HV3HY+LJqNQJyJkIb2d/cEt/ID/jj6r/AMxEf/EMhouRcj2l/vIe56rma8y7FXYq7FWH/mb+Z2ie&#xA;QNGivtQje6ubpzHY2MRCtKyirEsfsotRyah6jbLsOE5DQa8mQRCR/lV+bureeNSubS88ty6NBFbi&#xA;7t7t5WkSRGdVRV5RRVqGryBp7ZPPpxAWDbHHlMjyemZjNyXah5k8u6dP9X1DVbOzuCocQ3E8UT8T&#xA;0PF2BptkhCR5BBkAmKsrKGUgqRUEbgg5FLsVdirsVdirsVdirsVdiqU+bL3W7Ly1qV3odr9d1iGB&#xA;2sbUioeWlFqOSVA60rvk8YBkL5MZEgbPAZ/K/wCcX5t6/p0fnHTv0D5d05uc8ao9uprTmY45Xkke&#xA;Rx8IY/Co/HPE8eIHhNkuLwzyHfYPo+ztLaztILO1jENtbRrDBEuypGihVUewApmuJvdzAFXArsVf&#xA;HmaJ9WeifkXcxw+dJI3NGuLKWKP3YPHJ/wARjOZWjPr+DofaKBOnB7pD9I/S9+kRZI2Rt1cFWHsd&#xA;s2bxANG3yJe2k1neT2k44zW8jRSL4MjFT+IzRkUafUscxOIkORFqGBmqW8EtxPHBEOUsrqka+LMa&#xA;AffhAtjKQiCTyD65d4rKyZ3NIbaMszH+WNak/cM3fIPlwBnKhzJfP9x+dnnmWH00lt4GpT1Y4QW+&#xA;fxl1/DNYdXN7iPs/pgbon4sL1DUr/Ubt7u/uHubmT7csjFmPtv2HYZjykSbLt8WKOOPDEUHsv5Af&#xA;8cfVf+YiP/iGZ+i5F5P2l/vIe56rma8y7FXlXnr/AJyH8qeWdXfRLG1n1zVoX9OeG2osaSA0MZkI&#xA;Ys47hVPgTXbMvFpJSFnYNE84Brm15B/5yI8q+atYj0S7tZtF1Wd/Ttorgh4pJK09MSAKVc9gyip2&#xA;Brtjl0koC+YWGcSNcnkf/OUXm6x1fzda6LbxSpPoAkiupJAoR2uFikBjoxNABvUDMvRYyI33tGpl&#xA;Zrue3/k/+a2nee7S9gsrCWx/Q0dqknqsrB/WEgHHj0p6OYOowHHzPNycWXiehkgAkmgG5JzHbXxB&#xA;57utS8+eaPNvmu1Bk03TSjhwCQLYTJa2+3bkvxn6c3mIDHGMepdbMmRJfT35EebP8Sflrpksj87z&#xA;Th+j7upqeVuAEJPi0RRj75q9Vj4Znzc3DK4oLzj+fvljyp5xby1qVnc1hVHub5eJjVZIxIvFQS7H&#xA;enQb5LHpZTjxBE84iaLGbb/nLLys+rLb3GjXltpzsB9dZkaRVbo7QjtQ12c/Tlh0Eq57sPzIvkyb&#xA;85/zeXyV5etn0qL61qesRsdOuqBraNAF/esf2jRwUXv32616bT8Z35Bnly8I2Yj+XP8AzkLcXNlo&#xA;+hXejX+pavPSGTUC68ZpXYkNUjYEmntlubSUSQQA148/IUzf8r/zq0fz/qN9p1rYTWF1ZRLPwnZW&#xA;5oW4NTj04krX55Tn0xxgG2zHmEmrz87vLtr+ZkXkR7eU3Dyx2zagGX0VnljDpHx+0SWZU+ZxGmkY&#xA;canMOLhRP5pfm/pH5fHTkvLOW/n1H1THFAyqVWLiCzcvEvQfTgwac5LronJlEFbz1+bflzyTo9ne&#xA;a0ko1G+jV4NIi4tcVIBblUqqqjGhY/RXBi08pmhyTPKIjdh+l/8AOTOinVrew8x6Fe+Xo7rj6V1c&#xA;fEgVjQO4KRsE/wAoA5dLRGribaxqBe4plX5pfm7pP5ex6Y17Yz3zap63oCBkUKIPT5cix7+sKUGV&#xA;YNOcl10Z5Mogk/l3/nITy95i8/w+VNJ0+eeG4eWOHVCyqjGGN5GcRfa4ERmhrX2yc9IYw4iWMc4M&#xA;qCWy/wDOUXlCG+1Gzl0y9EtkzRQIoRmuJlfhwUA0UdTUnp77ZL8lKgbR+ZCJ8if85JeV/M+uw6Le&#xA;WM2j3l0/pWbyussTyHZY2YBCjMdhtSvfBl0coiwbTDUAmnjWcs+upj5e1q40TW7PVYByktJA/CtO&#xA;S9HSv+UpIycJ8JBcfVacZscoH+IPqbSNWsNX02DUbCQS2twoZGHUeKsOzKdiM3EZCQsPm2fDLFMw&#xA;kKIebfmh+VV1ql3JrmhKHvJBW8sqhfUIFOcZO3Kg3Hf59cXUacyPFF6DsftmOOPh5fp6Hu8i8jl8&#xA;t+Yop/q8ml3aT/76MEnI/IccwfDl3F6kavERYnGveHpX5W/lbqceqQ65rsBtYrUiSztJNpGlH2Xd&#xA;eqhDuAd6+3XL0+nN8Unnu2O2IGBxYjd8z0plH5w+b4NI8uyaXDIP0lqiGIIDukB2kdvDkPhH9mXa&#xA;nLwxrqXXdh6E5comR6Iff0/W+e81b3TsVe3fkB/xx9V/5iI/+IZsNFyLx/tL/eQ9z1XM15lB6zPP&#xA;b6RfXFv/AH8NvLJFtX41QldvmMMRuEHk+cP+cTLXTbvzD5h1G74y6vBDAbWST4pAkzSfWHUnvVUB&#xA;Pv75steSAAOTiaYCyhv+cqbOysPO2i6lp5EOr3Ft6lwYtn5QyUglNP2uoB/ycOhJMSDyRqRUgUV/&#xA;zlo0rXPlRphxla2uTIvgxMVR9+DQfxJ1XR9I6b/xzrX/AIwx/wDERmtPNyxyYV+eXmz/AA1+W2qX&#xA;Eb8L2+X9H2RBofUuAVYqfFIg7D5ZfpsfFMNeaVRfPP5beZtT0LyRrOjx+Rr7XIPMYdJ9SiMqIYfT&#xA;MSKgW3mB9NmdgeXU+2bDNASkDxAU4mORESKu2Qf84s+ZptL83al5UveUI1GMvFDICrJdWleaFTQg&#xA;mPly/wBXK9dC4iQ6M9NKjSL83RRS/wDOVenxyosiGayqjAEGlspGx98GP/FymX96m/8AzlzZWn6J&#xA;0C+9FBefWJofXAHMxlA3AnuKioyGgJshlqhsFv5wMzf843+UWYksYtJJJ3JJsjjp/wC+l8fvRl/u&#xA;x8Hp/wCS3/kq/LX/ADBr/wASbMbU/wB4W/D9IeFXFxF+Vv8AzkPd3Uw9LRrz1pyBRQba8jaQKvsl&#xA;wvEf6uZwHi4fNxvoyeTB9R8v+Y7zytJ+aUrsJ7rWpAzr+yzfvROPBRNVB75eJxEvD8moxNcXmz2L&#xA;VB+bX53eXHKctN0+ytbi7jFSg9KIXU6ke9xJ6JzH4fCxHvbb45hBfmfLr+o/85GG2so7eXULWazi&#xA;0q3vjW3qluk0atUjZpGLAeJpksFDDvyRks5GTfmB+X359+e7S0ttbsdHAspGkglt5OEg5jiy8mZ/&#xA;hOxI9hlWLLix8iWc4TlzpKf+cldPvdO8rflzp98we9s7G4t7pwagyxQ2aOQe/wAQOT0ZBlMjv/Wx&#xA;1AoRfQnl7yn5X0+z06ax0iztZraIG3mhgjR0MkfFyHVQ1WB+LffvmvnkkSbLlxiB0fPn/OOiI350&#xA;+ZGZQxS0vmQkVIP12Fajw2JGbDWf3Q+H3OJg+sof/nKPTbOy8/6ReaZGIdUvLZZZ/RADvKkxWKQg&#xA;b8zSle9PbDoiTAg8l1IqQpJc419jdirI/KHnvXfK07NYuJLSQ1nspamNj05Cm6tTuPprluLNKHJ1&#xA;+u7Nxaker6uhHN6xpX56+VrmMDUILiwm/aoomj+hlo3/AAmZsdXE89nmc3s7nifQRIfI/j4prJ+c&#xA;P5fLHyXUmdv5Ft56/wDDIB+OT/NY+9xh2Hqr+n7Y/rYv5h/Pm0WJotAsnkmOwubqioPdY1JLfSRl&#xA;U9YP4Q7HS+zcibyy27h+t5Dqep3+qX01/fzNcXc55SSt1PsANgB2A2GYMpEmy9ThwxxxEYiohC5F&#xA;tdir278gP+OPqv8AzER/8QzYaLkXj/aX+8h7nquZrzLsVeA63/zj95v0LzXL5i/LTWYtN9VmYWk5&#xA;ZDEJDVolISVJYq9FddtutK5sI6uMo8MxbinAQbiUZ5U/ITzJe+bovNv5jaxHq19A6SxWcPJ0Zo94&#xA;/UYrEqoh39NEofvBjk1URHhgKTHAbuRTT89vyh8y+f7vR5tGubK3XT450mF48qEmUoV4+nFL/Ia1&#xA;pkdLqI47tlmxGVU9ZtIWhtIYWILRxqjEdKqANsxC3h5T+en5XedfP8ul2+j3djbaZYLJJIl3LMjv&#xA;PIQK8Y4ZRRUXY17nbMrS5447u7aM2OUuT0ry3oltoWgado1t/c6fbxW6N05emoUsfdiKnMacuIk9&#xA;7dEUKeO+ZvyM83t+bA87+WLvT7e3+tQ3pt7mSaNzIAPXX93DKvGWjb1/aOZkNVHw+GVuPLCePiCa&#xA;61+UHmW+/O2089xXNkukQSW7vA7yi5IhhEbUURFOo2+PIx1ERi4OrI4iZ8SY/np+WOveftJ0yz0e&#xA;4tbeWyneaU3jyIpVk4jj6ccu/wA8jpcwxkkpzYzIbK3mn8qrrzD+Uel+TZbuO31PTLWySO5Xk8Bu&#xA;LSERNXZXKN8QrSvenbBDPw5DLoVljuFMN/Lj8p/zp8valplveeYoYfLOnXCzS6dBcTOJI+Zd40X0&#xA;lHFiTUFgN+mXZs+KQND1Frx4pg89k+/PT8mtU8/S6Ve6LPa21/ZLJDcNdtIivCxDIAY45TVG5dv2&#xA;sr0uoGOwWebEZcmSv+Wli35Uf4DqnEWAt1mIPH60P3gm6V/3o+PK/GPicfmz8P08LGfyL/JjU/IN&#xA;xql/rU9rc6heJHBbNaNI6pCpLuCZI4jV249v2cs1WpGSgOTDDiMea784vyOk856hb+YNCvk03zDb&#xA;IqFpOSxyiM8o2LxgukidmAPbwx0+p4BR3C5cPFuOaQ235f8A/OSt5CljqHnOCzslHFp4nLXFD4PH&#xA;DHIx92kHzyw5cA3EWHBk706/O38n/Mfni08uW+j3lqh0aO4juJL6SVWk9VYArL6cc1T+5PKv45DT&#xA;aiMLvqzzYjKqes2kLQ2kMLEFo41RiOlVAG2Yhbw+Ofy80nz3qX5l69H5K1OLS9YgW7neaY0SSFbp&#xA;FaI/u5gasymjLTbNxmlAQHELDr4CRkeF7B5M/ITWT5tTzd+YOsJrWrQussFvDzaL1I6emzu6x/Cl&#xA;PhRUA+jbMPJqhw8MBQb4YDdyNvJ85V9fdirsVdirsVdirsVdirsVe3fkB/xx9V/5iI/+IZsNFyLx&#xA;/tL/AHkPc9VzNeZdirsVdirsVdirsVdirsVdirsVdirsVdirsVdirsVdirsVdirxz8p/yb8z+UPz&#xA;B1jzHqV1ZTWOoQXMMMdtJK0oaa5jmXkHijWnGM1ox3zMz6iM4CIcfFiMZEl7HmG5D5l8wf8AKvv0&#xA;xdfo36/9U9RvT4ej6fXf0+XxcP5a70zUT4L2t9E035rwxx8HFXn9vml//Oof9rD/AJIZH0ebf/hH&#xA;9D7Xf86h/wBrD/khj6PNf8I/ofa7/nUP+1h/yQx9Hmv+Ef0Ptd/zqH/aw/5IY+jzX/CP6H2u/wCd&#xA;Q/7WH/JDH0ea/wCEf0Ptd/zqH/aw/wCSGPo81/wj+h9rv+dQ/wC1h/yQx9Hmv+Ef0Ptd/wA6h/2s&#xA;P+SGPo81/wAI/ofa90/KT/DH+GD+gfVp6p+u/Waet61B9rj8PHjTjx/XXNjpuHh9LxnbfjeN+9rl&#xA;tXKmbZkOndirsVdirsVdirsVdirsVdirsVdirsVdirsVdirsVdirsVdirsVdir//2Q==</xmpGImg:image>
               </rdf:li>
            </rdf:Alt>
         </xmp:Thumbnails>
         <xmpMM:InstanceID>xmp.iid:aa7729a5-ff8d-4130-88fb-7586414971b3</xmpMM:InstanceID>
         <xmpMM:DocumentID>xmp.did:aa7729a5-ff8d-4130-88fb-7586414971b3</xmpMM:DocumentID>
         <xmpMM:OriginalDocumentID>uuid:5D20892493BFDB11914A8590D31508C8</xmpMM:OriginalDocumentID>
         <xmpMM:RenditionClass>proof:pdf</xmpMM:RenditionClass>
         <xmpMM:DerivedFrom rdf:parseType="Resource">
            <stRef:instanceID>xmp.iid:dd7ec8fb-bfc1-439c-8851-edaff62c4f15</stRef:instanceID>
            <stRef:documentID>xmp.did:dd7ec8fb-bfc1-439c-8851-edaff62c4f15</stRef:documentID>
            <stRef:originalDocumentID>uuid:5D20892493BFDB11914A8590D31508C8</stRef:originalDocumentID>
            <stRef:renditionClass>proof:pdf</stRef:renditionClass>
         </xmpMM:DerivedFrom>
         <xmpMM:History>
            <rdf:Seq>
               <rdf:li rdf:parseType="Resource">
                  <stEvt:action>saved</stEvt:action>
                  <stEvt:instanceID>xmp.iid:3835e419-95b8-4fe5-a956-9d89c016f4eb</stEvt:instanceID>
                  <stEvt:when>2020-04-14T10:21:39+02:00</stEvt:when>
                  <stEvt:softwareAgent>Adobe Illustrator 24.1 (Macintosh)</stEvt:softwareAgent>
                  <stEvt:changed>/</stEvt:changed>
               </rdf:li>
               <rdf:li rdf:parseType="Resource">
                  <stEvt:action>converted</stEvt:action>
                  <stEvt:parameters>from application/postscript to application/vnd.adobe.illustrator</stEvt:parameters>
               </rdf:li>
               <rdf:li rdf:parseType="Resource">
                  <stEvt:action>converted</stEvt:action>
                  <stEvt:parameters>from application/postscript to application/vnd.adobe.illustrator</stEvt:parameters>
               </rdf:li>
               <rdf:li rdf:parseType="Resource">
                  <stEvt:action>saved</stEvt:action>
                  <stEvt:instanceID>xmp.iid:a0fb9106-3834-4ad7-a1fb-b7c27bbff7d4</stEvt:instanceID>
                  <stEvt:when>2020-06-11T11:35:02+02:00</stEvt:when>
                  <stEvt:softwareAgent>Adobe Illustrator 24.1 (Macintosh)</stEvt:softwareAgent>
                  <stEvt:changed>/</stEvt:changed>
               </rdf:li>
               <rdf:li rdf:parseType="Resource">
                  <stEvt:action>converted</stEvt:action>
                  <stEvt:parameters>from application/postscript to application/vnd.adobe.illustrator</stEvt:parameters>
               </rdf:li>
               <rdf:li rdf:parseType="Resource">
                  <stEvt:action>saved</stEvt:action>
                  <stEvt:instanceID>xmp.iid:8e5d51b3-ef4e-4442-979d-577c73826bad</stEvt:instanceID>
                  <stEvt:when>2020-06-16T10:33:43+02:00</stEvt:when>
                  <stEvt:softwareAgent>Adobe Illustrator 24.1 (Macintosh)</stEvt:softwareAgent>
                  <stEvt:changed>/</stEvt:changed>
               </rdf:li>
               <rdf:li rdf:parseType="Resource">
                  <stEvt:action>saved</stEvt:action>
                  <stEvt:instanceID>xmp.iid:dd7ec8fb-bfc1-439c-8851-edaff62c4f15</stEvt:instanceID>
                  <stEvt:when>2020-06-16T10:34:59+02:00</stEvt:when>
                  <stEvt:softwareAgent>Adobe Illustrator 24.1 (Macintosh)</stEvt:softwareAgent>
                  <stEvt:changed>/</stEvt:changed>
               </rdf:li>
               <rdf:li rdf:parseType="Resource">
                  <stEvt:action>converted</stEvt:action>
                  <stEvt:parameters>from application/postscript to application/vnd.adobe.illustrator</stEvt:parameters>
               </rdf:li>
               <rdf:li rdf:parseType="Resource">
                  <stEvt:action>converted</stEvt:action>
                  <stEvt:parameters>from application/postscript to application/vnd.adobe.illustrator</stEvt:parameters>
               </rdf:li>
               <rdf:li rdf:parseType="Resource">
                  <stEvt:action>converted</stEvt:action>
                  <stEvt:parameters>from application/postscript to application/vnd.adobe.illustrator</stEvt:parameters>
               </rdf:li>
               <rdf:li rdf:parseType="Resource">
                  <stEvt:action>converted</stEvt:action>
                  <stEvt:parameters>from application/postscript to application/vnd.adobe.illustrator</stEvt:parameters>
               </rdf:li>
               <rdf:li rdf:parseType="Resource">
                  <stEvt:action>saved</stEvt:action>
                  <stEvt:instanceID>xmp.iid:aa7729a5-ff8d-4130-88fb-7586414971b3</stEvt:instanceID>
                  <stEvt:when>2020-11-11T15:42:49+01:00</stEvt:when>
                  <stEvt:softwareAgent>Adobe Illustrator 25.0 (Macintosh)</stEvt:softwareAgent>
                  <stEvt:changed>/</stEvt:changed>
               </rdf:li>
            </rdf:Seq>
         </xmpMM:History>
         <illustrator:StartupProfile>Print</illustrator:StartupProfile>
         <xmpTPg:HasVisibleOverprint>False</xmpTPg:HasVisibleOverprint>
         <xmpTPg:HasVisibleTransparency>False</xmpTPg:HasVisibleTransparency>
         <xmpTPg:NPages>1</xmpTPg:NPages>
         <xmpTPg:MaxPageSize rdf:parseType="Resource">
            <stDim:w>60.000000</stDim:w>
            <stDim:h>20.000000</stDim:h>
            <stDim:unit>Millimeters</stDim:unit>
         </xmpTPg:MaxPageSize>
         <xmpTPg:PlateNames>
            <rdf:Seq>
               <rdf:li>Cyan</rdf:li>
               <rdf:li>Magenta</rdf:li>
               <rdf:li>Yellow</rdf:li>
               <rdf:li>Black</rdf:li>
            </rdf:Seq>
         </xmpTPg:PlateNames>
         <xmpTPg:SwatchGroups>
            <rdf:Seq>
               <rdf:li rdf:parseType="Resource">
                  <xmpG:groupName>Default Swatch Group</xmpG:groupName>
                  <xmpG:groupType>0</xmpG:groupType>
                  <xmpG:Colorants>
                     <rdf:Seq>
                        <rdf:li rdf:parseType="Resource">
                           <xmpG:swatchName>White</xmpG:swatchName>
                           <xmpG:mode>RGB</xmpG:mode>
                           <xmpG:type>PROCESS</xmpG:type>
                           <xmpG:red>255</xmpG:red>
                           <xmpG:green>255</xmpG:green>
                           <xmpG:blue>255</xmpG:blue>
                        </rdf:li>
                        <rdf:li rdf:parseType="Resource">
                           <xmpG:swatchName>Black</xmpG:swatchName>
                           <xmpG:mode>RGB</xmpG:mode>
                           <xmpG:type>PROCESS</xmpG:type>
                           <xmpG:red>29</xmpG:red>
                           <xmpG:green>29</xmpG:green>
                           <xmpG:blue>27</xmpG:blue>
                        </rdf:li>
                        <rdf:li rdf:parseType="Resource">
                           <xmpG:swatchName>ALG R=0 G=46 B=101</xmpG:swatchName>
                           <xmpG:type>PROCESS</xmpG:type>
                           <xmpG:tint>100.000000</xmpG:tint>
                           <xmpG:mode>RGB</xmpG:mode>
                           <xmpG:red>0</xmpG:red>
                           <xmpG:green>46</xmpG:green>
                           <xmpG:blue>101</xmpG:blue>
                        </rdf:li>
                        <rdf:li rdf:parseType="Resource">
                           <xmpG:swatchName>ALG R=234 G=44 B=56</xmpG:swatchName>
                           <xmpG:type>PROCESS</xmpG:type>
                           <xmpG:tint>100.000000</xmpG:tint>
                           <xmpG:mode>RGB</xmpG:mode>
                           <xmpG:red>234</xmpG:red>
                           <xmpG:green>44</xmpG:green>
                           <xmpG:blue>56</xmpG:blue>
                        </rdf:li>
                     </rdf:Seq>
                  </xmpG:Colorants>
               </rdf:li>
            </rdf:Seq>
         </xmpTPg:SwatchGroups>
         <pdf:Producer>Adobe PDF library 10.01</pdf:Producer>
      </rdf:Description>
   </rdf:RDF>
</x:xmpmeta>
                                                                                                    
                                                                                                    
                                                                                                    
                                                                                                    
                                                                                                    
                                                                                                    
                                                                                                    
                                                                                                    
                                                                                                    
                                                                                                    
                                                                                                    
                                                                                                    
                                                                                                    
                                                                                                    
                                                                                                    
                                                                                                    
                                                                                                    
                                                                                                    
                                                                                                    
                                                                                                    
                           
<?xpacket end="w"?>
	</metadata>
<g>
	<path class="st0" d="M145.7,15h-2.4l-1.5,4.7c-0.2,0.8-0.5,2-0.5,2s-0.2-1.3-0.5-2l-1.6-4.7h-2.7l3.6,8.9c-0.5,1.2-1.3,2.8-2.5,2.8
		c-0.5,0-0.9-0.1-1.3-0.2l-0.4,1.7c0.4,0.2,1,0.4,1.7,0.4c2.2,0,3.5-2.1,4.5-4.6L145.7,15z M136.3,23.7v-1.6
		c-0.5,0.2-1.1,0.2-1.5,0.2c-0.9,0-1.4-0.4-1.4-1.4c0-1.2,0-4.1,0-4.3h2.9V15h-2.9v-2h-0.2l-2.9,2.7v0.9h0.9v0.8
		c0,1.4-0.1,3.8-0.1,4.3c0,1.5,1,2.5,2.6,2.5C134.6,24.3,135.5,24,136.3,23.7 M128.4,15H126v9h2.4V15z M128.4,12.1
		c0-0.7-0.5-1.2-1.2-1.2c-0.7,0-1.2,0.5-1.2,1.2c0,0.7,0.6,1.3,1.2,1.3C127.9,13.4,128.4,12.8,128.4,12.1 M124.1,21.3
		c0-2.9-4.1-2.6-4.1-4c0-0.5,0.5-0.8,1.2-0.8c0.9,0,1.8,0.2,2.5,0.5l0.3-1.7c-0.7-0.3-1.6-0.5-2.6-0.5c-1.9,0-3.6,1-3.6,2.8
		c0,2.9,4.1,2.6,4.1,4c0,0.7-0.7,0.9-1.4,0.9c-0.9,0-1.9-0.3-2.7-0.7l-0.3,1.8c0.8,0.4,1.7,0.7,2.9,0.7
		C122.4,24.3,124.1,23.3,124.1,21.3 M116.8,15.1c-0.3-0.2-0.8-0.3-1.2-0.3c-1,0-1.8,0.7-2.3,1.7h-0.1l0.1-1.6l-2.2,0.2v8.9h2.4v-6.5
		c0.3-0.3,0.8-0.5,1.4-0.5c0.6,0,1.2,0.2,1.6,0.4L116.8,15.1z M107.1,18.5h-3.8c0.1-1.1,0.8-2.2,2-2.2
		C106.4,16.3,107.1,17.3,107.1,18.5 M109.3,18.6c0-2-1.3-3.8-3.8-3.8c-2.7,0-4.5,2-4.5,4.9c0,2.7,1.6,4.5,4.4,4.5
		c1.4,0,2.5-0.3,3.6-0.7l0.1-1.7c-1.1,0.4-2,0.6-3.1,0.6c-1.7,0-2.7-1.1-2.7-2.6h6C109.3,19.6,109.3,19,109.3,18.6 M100.4,15H98
		l-1.6,4.8c-0.3,0.8-0.5,2-0.5,2s-0.2-1.3-0.5-2L93.8,15h-2.7l3.6,9.1h2L100.4,15z M89.9,15h-2.4v9h2.4V15z M89.9,12.1
		c0-0.7-0.5-1.2-1.2-1.2c-0.7,0-1.2,0.5-1.2,1.2c0,0.7,0.6,1.3,1.2,1.3C89.4,13.4,89.9,12.8,89.9,12.1 M85,24.1v-6.1
		c0-2-1.3-3.1-2.9-3.1c-1.2,0-2.3,0.6-3,1.4h-0.1l0-1.2l-2.3,0.2v8.9h2.4v-6.9c0.4-0.3,1.1-0.5,1.7-0.5c1.1,0,1.8,0.6,1.8,1.9v5.5
		H85z M74.1,19.7V12h-2.5v7.7c0,1.8-1.2,2.6-2.5,2.6c-1.2,0-2.7-0.7-2.7-2.6V12h-2.6v7.9c0,2.9,2.2,4.3,4.9,4.3
		C71.9,24.3,74.1,22.7,74.1,19.7"/>
	<path class="st0" d="M152.5,36.7c0,1.7-0.9,2.9-2.5,2.9c-0.5,0-1.1-0.2-1.5-0.4v-5c0.4-0.3,1-0.5,1.6-0.5
		C151.6,33.7,152.5,34.8,152.5,36.7 M154.9,36.3c0-2.5-1.4-4.4-3.7-4.4c-1,0-2,0.5-2.7,1.3h-0.1l0-1.2l-2.3,0.2v13.5h2.4V41
		c0.3,0.2,0.9,0.3,1.4,0.3C153,41.3,154.9,39.3,154.9,36.3 M144.9,32.1c-0.3-0.2-0.8-0.3-1.2-0.3c-1,0-1.9,0.7-2.3,1.7h-0.1l0.1-1.6
		l-2.2,0.2v9h2.4v-6.5c0.3-0.3,0.8-0.6,1.4-0.6c0.6,0,1.2,0.2,1.6,0.4L144.9,32.1z M135.1,35.6h-3.8c0.1-1.1,0.8-2.2,2-2.2
		C134.5,33.4,135.1,34.4,135.1,35.6 M137.3,35.6c0-2-1.3-3.8-3.8-3.8c-2.7,0-4.6,2-4.6,4.9c0,2.7,1.7,4.6,4.4,4.6
		c1.4,0,2.5-0.3,3.6-0.7l0.1-1.7c-1.1,0.4-2,0.6-3.1,0.6c-1.7,0-2.7-1.1-2.7-2.6h6C137.3,36.6,137.3,36.1,137.3,35.6 M128.2,32.1
		h-2.3l-1.3,4.4c-0.2,0.7-0.4,2.1-0.4,2.1s-0.2-1.3-0.5-2l-1.7-4.5h-1.7l-1.6,4.5c-0.2,0.7-0.5,2.1-0.5,2.1s-0.2-1.4-0.4-2.1
		l-1.3-4.5h-2.6l3.1,9.1h1.8l1.7-4.5c0.2-0.7,0.5-1.9,0.5-1.9s0.2,1.2,0.4,1.9l1.7,4.5h1.9L128.2,32.1z M113.6,40.8v-1.6
		c-0.5,0.2-1.1,0.2-1.5,0.2c-0.9,0-1.4-0.4-1.4-1.4c0-1.2,0-4.1,0-4.3h2.9v-1.7h-2.9v-2h-0.2l-2.9,2.7v0.9h0.9v0.8
		c0,1.4-0.1,3.8-0.1,4.3c0,1.5,1,2.5,2.6,2.5C111.9,41.3,112.8,41.1,113.6,40.8 M105.7,41.1V35c0-2-1.3-3.1-2.9-3.1
		c-1.2,0-2.3,0.6-3,1.4h-0.1l0-1.2l-2.3,0.2v9h2.4v-6.9c0.4-0.3,1.1-0.5,1.7-0.5c1.1,0,1.8,0.6,1.8,1.9v5.5H105.7z M91.8,36.2h-3.1
		l1.2-3.6c0.2-0.5,0.3-1.4,0.3-1.4s0.1,0.9,0.3,1.4L91.8,36.2z M96.1,41.1L91.7,29h-2.8l-4.4,12.1h2.6l1.1-3.2h4l1.1,3.2H96.1z
		 M80.9,27.5c-0.4-0.2-1-0.4-1.6-0.4c-2,0-3.5,1.3-3.5,3.3v1.6l-1.1,0.3v1.4h1.1v7.4h2.4v-7.4h2.2v-1.7h-2.2v-1.7
		c0-1,0.5-1.4,1.2-1.4c0.4,0,0.8,0.1,1.2,0.2L80.9,27.5z M71.3,36.7c0,1.6-0.9,2.9-2.2,2.9c-1.4,0-2.3-1.4-2.3-3.1
		c0-1.6,0.9-2.9,2.2-2.9C70.4,33.6,71.3,35,71.3,36.7 M73.8,36.4c0-2.6-1.8-4.6-4.5-4.6c-3,0-4.9,2-4.9,4.9c0,2.6,1.8,4.6,4.5,4.6
		C71.8,41.3,73.8,39.3,73.8,36.4"/>
</g>
<g>
	<path class="st1" d="M50.9,49.3H12.6c-1.2,0-2.1-1-2.1-2.1V9c0-1.2,1-2.1,2.1-2.1h38.3C52,6.8,53,7.8,53,9v38.3
		C53,48.4,52,49.3,50.9,49.3z"/>
	<path class="st2" d="M37.7,29.3c0.2,5.1-1.9,8.9-6.6,8.9c-3.6,0-7.3-2.7-7.3-8.1V15.6h-6v14.8c0,5.6,3.7,11.3,12.4,11.3
		c8.4,0,11.7-6,11.8-11c6.1,0.9,8.9-3.6,8.1-6.7c-1.1,1.2-2.8,2.3-8.1,0.8v-9.2h-4.3v7.7c-8.4-2.7-10.4,4.9-10.4,4.9
		S31.3,26.1,37.7,29.3"/>
</g>
</svg>
