<?xml version="1.0" standalone="no"?><!DOCTYPE svg PUBLIC "-//W3C//DTD SVG 1.1//EN" "http://www.w3.org/Graphics/SVG/1.1/DTD/svg11.dtd"><svg class="icon" height="512" viewBox="0 0 1024 1024" version="1.1" xmlns="http://www.w3.org/2000/svg"><path d="M768 743.936V896c0 23.552-19.029333 42.624-42.453333 42.624H127.786667A42.325333 42.325333 0 0 1 85.333333 896.384V127.573333C85.333333 104.277333 104.32 85.333333 127.786667 85.333333h597.76c33.28 0 42.453333 6.826667 42.453333 31.786667v37.12a42.666667 42.666667 0 0 0 85.333333 0v-37.12C853.333333 38.570667 801.408 0 725.546667 0H127.786667A127.701333 127.701333 0 0 0 0 127.616V896.426667A127.658667 127.658667 0 0 0 127.786667 1024h597.76A127.872 127.872 0 0 0 853.333333 896v-152.064a42.666667 42.666667 0 0 0-85.333333 0zM298.666667 298.666667c0-23.552 19.328-42.666667 42.538666-42.666667h256.256c23.466667 0 42.538667 18.944 42.538667 42.666667 0 23.552-19.328 42.666667-42.538667 42.666666H341.205333A42.496 42.496 0 0 1 298.666667 298.666667z m0 213.333333a42.666667 42.666667 0 0 1 42.709333-42.666667H533.333333a42.666667 42.666667 0 1 1 0 85.333334H341.333333A42.581333 42.581333 0 0 1 298.666667 512z m0 213.333333a42.666667 42.666667 0 0 1 42.624-42.666666H448a42.666667 42.666667 0 1 1 0 85.333333H341.333333A42.538667 42.538667 0 0 1 298.666667 725.333333zM213.333333 341.333333a42.666667 42.666667 0 1 0 0-85.333333 42.666667 42.666667 0 0 0 0 85.333333z m0 213.333334a42.666667 42.666667 0 1 0 0-85.333334 42.666667 42.666667 0 0 0 0 85.333334z m0 213.333333a42.666667 42.666667 0 1 0 0-85.333333 42.666667 42.666667 0 0 0 0 85.333333z m316.586667-7.338667l26.709333-111.786666c10.666667-44.714667 56.789333-61.696 94.592-35.242667l49.109334 34.432c37.888 26.496 37.845333 75.392-0.597334 100.949333l-95.658666 63.488c-43.52 28.928-86.4-0.853333-74.197334-51.84z m309.76-530.773333a74.496 74.496 0 0 1 103.893333-18.346667l34.986667 24.533334c33.792 23.637333 41.984 70.186667 18.346667 103.936l-269.226667 384.554666a74.496 74.496 0 0 1-103.936 18.346667l-35.029333-24.576a74.624 74.624 0 0 1-18.346667-103.893333l269.269333-384.554667z m52.394667 36.693333l-269.269334 384.554667a10.624 10.624 0 0 0 2.602667 14.805333l35.029333 24.490667c4.906667 3.413333 11.392 2.304 14.805334-2.56l269.226666-384.597333a10.624 10.624 0 0 0-2.56-14.762667l-35.072-24.533333a10.496 10.496 0 0 0-14.762666 2.602666z" /></svg>